REM DIRINDEX 1\5,1\2\6,1\2\7,1\3\8,1\3\9,1\4\10,1\4\11,1\4\12
REM DIRNAME folder01,folder02,folder03,folder04,folder05,folder06,folder07,folder08,folder09,folder10,folder11,folder12
TITLE ""
FILE "EJE_DB3000_5th_6C_44.mp3" MP3
  TRACK 01 AUDIO
    TITLE "0:"
    INDEX 01 00:00:00
  TRACK 02 AUDIO
    TITLE "10:cjc026_11859"
    INDEX 01 00:00:05
  TRACK 03 AUDIO
    TITLE "0:"
    INDEX 01 00:01:09
  TRACK 04 AUDIO
    TITLE "11:cjc026_11860"
    INDEX 01 00:01:36
  TRACK 05 AUDIO
    TITLE "0:"
    INDEX 01 00:02:30
  TRACK 06 AUDIO
    TITLE "12:cjc026_11861"
    INDEX 01 00:02:55
  TRACK 07 AUDIO
    TITLE "0:"
    INDEX 01 00:03:59
  TRACK 08 AUDIO
    TITLE "10:cjc026_11862"
    INDEX 01 00:04:11
  TRACK 09 AUDIO
    TITLE "0:"
    INDEX 01 00:05:09
  TRACK 10 AUDIO
    TITLE "11:cjc026_11863"
    INDEX 01 00:05:34
  TRACK 11 AUDIO
    TITLE "0:"
    INDEX 01 00:06:20
  TRACK 12 AUDIO
    TITLE "12:cjc026_11864"
    INDEX 01 00:06:45
  TRACK 13 AUDIO
    TITLE "0:"
    INDEX 01 00:07:43
  TRACK 14 AUDIO
    TITLE "10:cjc026_11865"
    INDEX 01 00:07:68
  TRACK 15 AUDIO
    TITLE "0:"
    INDEX 01 00:08:56
  TRACK 16 AUDIO
    TITLE "11:cjc026_11866"
    INDEX 01 00:09:08
  TRACK 17 AUDIO
    TITLE "0:"
    INDEX 01 00:09:67
  TRACK 18 AUDIO
    TITLE "12:cjc026_11867"
    INDEX 01 00:10:18
  TRACK 19 AUDIO
    TITLE "0:"
    INDEX 01 00:11:05
  TRACK 20 AUDIO
    TITLE "10:cjc026_11868"
    INDEX 01 00:11:33
  TRACK 21 AUDIO
    TITLE "0:"
    INDEX 01 00:12:28
  TRACK 22 AUDIO
    TITLE "11:cjc026_11869"
    INDEX 01 00:12:56
  TRACK 23 AUDIO
    TITLE "0:"
    INDEX 01 00:13:63
  TRACK 24 AUDIO
    TITLE "12:cjc026_11870"
    INDEX 01 00:14:13
  TRACK 25 AUDIO
    TITLE "0:"
    INDEX 01 00:15:09
  TRACK 26 AUDIO
    TITLE "10:cjc026_11871"
    INDEX 01 00:15:36
  TRACK 27 AUDIO
    TITLE "0:"
    INDEX 01 00:16:28
  TRACK 28 AUDIO
    TITLE "11:cjc026_11872"
    INDEX 01 00:16:55
  TRACK 29 AUDIO
    TITLE "0:"
    INDEX 01 00:17:49
  TRACK 30 AUDIO
    TITLE "12:cjc026_11873"
    INDEX 01 00:18:01
  TRACK 31 AUDIO
    TITLE "0:"
    INDEX 01 00:18:66
  TRACK 32 AUDIO
    TITLE "10:cjc026_11874"
    INDEX 01 00:19:18
  TRACK 33 AUDIO
    TITLE "0:"
    INDEX 01 00:20:10
  TRACK 34 AUDIO
    TITLE "11:cjc026_11875"
    INDEX 01 00:20:34
  TRACK 35 AUDIO
    TITLE "0:"
    INDEX 01 00:21:31
  TRACK 36 AUDIO
    TITLE "12:cjc026_11876"
    INDEX 01 00:21:57
  TRACK 37 AUDIO
    TITLE "0:"
    INDEX 01 00:22:46
  TRACK 38 AUDIO
    TITLE "10:cjc026_11877"
    INDEX 01 00:22:72
  TRACK 39 AUDIO
    TITLE "0:"
    INDEX 01 00:23:73
  TRACK 40 AUDIO
    TITLE "11:cjc026_11878"
    INDEX 01 00:24:22
  TRACK 41 AUDIO
    TITLE "0:"
    INDEX 01 00:25:13
  TRACK 42 AUDIO
    TITLE "12:cjc026_11879"
    INDEX 01 00:25:35
  TRACK 43 AUDIO
    TITLE "0:"
    INDEX 01 00:26:40
  TRACK 44 AUDIO
    TITLE "10:cjc026_11880"
    INDEX 01 00:26:64
  TRACK 45 AUDIO
    TITLE "0:"
    INDEX 01 00:27:71
  TRACK 46 AUDIO
    TITLE "11:cjc026_11881"
    INDEX 01 00:28:19
  TRACK 47 AUDIO
    TITLE "0:"
    INDEX 01 00:29:15
  TRACK 48 AUDIO
    TITLE "12:cjc026_11882"
    INDEX 01 00:29:38
  TRACK 49 AUDIO
    TITLE "0:"
    INDEX 01 00:30:46
  TRACK 50 AUDIO
    TITLE "10:cjc026_11883"
    INDEX 01 00:30:69
  TRACK 51 AUDIO
    TITLE "0:"
    INDEX 01 00:31:59
  TRACK 52 AUDIO
    TITLE "11:cjc026_11884"
    INDEX 01 00:32:11
  TRACK 53 AUDIO
    TITLE "0:"
    INDEX 01 00:33:13
  TRACK 54 AUDIO
    TITLE "12:cjc026_11885"
    INDEX 01 00:33:38
  TRACK 55 AUDIO
    TITLE "0:"
    INDEX 01 00:34:28
  TRACK 56 AUDIO
    TITLE "10:cjc026_11886"
    INDEX 01 00:34:59
  TRACK 57 AUDIO
    TITLE "0:"
    INDEX 01 00:35:47
  TRACK 58 AUDIO
    TITLE "11:cjc026_11887"
    INDEX 01 00:35:72
  TRACK 59 AUDIO
    TITLE "0:"
    INDEX 01 00:36:72
  TRACK 60 AUDIO
    TITLE "12:cjc026_11888"
    INDEX 01 00:37:26
  TRACK 61 AUDIO
    TITLE "0:"
    INDEX 01 00:38:14
  TRACK 62 AUDIO
    TITLE "10:cjc026_11889"
    INDEX 01 00:38:39
  TRACK 63 AUDIO
    TITLE "0:"
    INDEX 01 00:39:35
  TRACK 64 AUDIO
    TITLE "11:cjc026_11890"
    INDEX 01 00:39:62
  TRACK 65 AUDIO
    TITLE "0:"
    INDEX 01 00:40:68
  TRACK 66 AUDIO
    TITLE "12:cjc026_11891"
    INDEX 01 00:41:18
  TRACK 67 AUDIO
    TITLE "0:"
    INDEX 01 00:42:12
  TRACK 68 AUDIO
    TITLE "10:cjc026_11892"
    INDEX 01 00:42:39
  TRACK 69 AUDIO
    TITLE "0:"
    INDEX 01 00:43:27
  TRACK 70 AUDIO
    TITLE "11:cjc026_11893"
    INDEX 01 00:43:52
  TRACK 71 AUDIO
    TITLE "0:"
    INDEX 01 00:44:67
  TRACK 72 AUDIO
    TITLE "12:cjc026_11894"
    INDEX 01 00:45:18
  TRACK 73 AUDIO
    TITLE "0:"
    INDEX 01 00:46:06
  TRACK 74 AUDIO
    TITLE "10:cjc026_11895"
    INDEX 01 00:46:31
  TRACK 75 AUDIO
    TITLE "0:"
    INDEX 01 00:47:28
  TRACK 76 AUDIO
    TITLE "11:cjc026_11896"
    INDEX 01 00:47:54
  TRACK 77 AUDIO
    TITLE "0:"
    INDEX 01 00:48:55
  TRACK 78 AUDIO
    TITLE "12:cjc026_11897"
    INDEX 01 00:49:06
  TRACK 79 AUDIO
    TITLE "0:"
    INDEX 01 00:50:03
